<svg xmlns="http://www.w3.org/2000/svg" width="157" height="24" viewBox="0 0 157 24" fill="none"><rect x="0.5" y="0.5" width="156" height="23" rx="11.5" stroke="#4285F4"></rect><path d="M31.733 11H30.8523C30.8002 10.7467 30.709 10.5241 30.5788 10.3324C30.451 10.1406 30.2947 9.97964 30.1101 9.84943C29.9278 9.71686 29.7254 9.61742 29.5028 9.55114C29.2803 9.48485 29.0483 9.4517 28.8068 9.4517C28.3665 9.4517 27.9676 9.56297 27.6101 9.78551C27.255 10.008 26.9721 10.3359 26.7614 10.7692C26.553 11.2024 26.4489 11.7339 26.4489 12.3636C26.4489 12.9934 26.553 13.5249 26.7614 13.9581C26.9721 14.3913 27.255 14.7192 27.6101 14.9418C27.9676 15.1643 28.3665 15.2756 28.8068 15.2756C29.0483 15.2756 29.2803 15.2424 29.5028 15.1761C29.7254 15.1098 29.9278 15.0116 30.1101 14.8814C30.2947 14.7488 30.451 14.5866 30.5788 14.3949C30.709 14.2008 30.8002 13.9782 30.8523 13.7273H31.733C31.6667 14.099 31.5459 14.4316 31.3707 14.7251C31.1955 15.0187 30.9777 15.2685 30.7173 15.4744C30.4569 15.678 30.1645 15.8331 29.8402 15.9396C29.5182 16.0462 29.1738 16.0994 28.8068 16.0994C28.1866 16.0994 27.6349 15.9479 27.152 15.6449C26.669 15.3419 26.2891 14.911 26.0121 14.3523C25.7351 13.7936 25.5966 13.1307 25.5966 12.3636C25.5966 11.5966 25.7351 10.9337 26.0121 10.375C26.2891 9.81629 26.669 9.38542 27.152 9.08239C27.6349 8.77936 28.1866 8.62784 28.8068 8.62784C29.1738 8.62784 29.5182 8.68111 29.8402 8.78764C30.1645 8.89418 30.4569 9.05043 30.7173 9.25639C30.9777 9.45999 31.1955 9.70857 31.3707 10.0021C31.5459 10.2933 31.6667 10.6259 31.733 11ZM35.3294 16.1136C34.8038 16.1136 34.3504 15.9976 33.9693 15.7656C33.5905 15.5312 33.2981 15.2045 33.0922 14.7855C32.8886 14.3641 32.7868 13.8741 32.7868 13.3153C32.7868 12.7566 32.8886 12.2642 33.0922 11.8381C33.2981 11.4096 33.5846 11.0758 33.9515 10.8366C34.3208 10.5952 34.7517 10.4744 35.2441 10.4744C35.5282 10.4744 35.8088 10.5218 36.0858 10.6165C36.3627 10.7112 36.6149 10.8651 36.8422 11.0781C37.0694 11.2888 37.2505 11.5682 37.3855 11.9162C37.5204 12.2642 37.5879 12.6927 37.5879 13.2017V13.5568H33.3833V12.8324H36.7356C36.7356 12.5246 36.6741 12.25 36.551 12.0085C36.4302 11.767 36.2574 11.5765 36.0325 11.4368C35.81 11.2971 35.5472 11.2273 35.2441 11.2273C34.9103 11.2273 34.6215 11.3101 34.3777 11.4759C34.1362 11.6392 33.9503 11.8523 33.8201 12.1151C33.6899 12.3778 33.6248 12.6596 33.6248 12.9602V13.4432C33.6248 13.8551 33.6958 14.2043 33.8379 14.4908C33.9823 14.7749 34.1824 14.9915 34.438 15.1406C34.6937 15.2874 34.9908 15.3608 35.3294 15.3608C35.5495 15.3608 35.7484 15.33 35.926 15.2685C36.1059 15.2045 36.2609 15.1098 36.3912 14.9844C36.5214 14.8565 36.622 14.6979 36.693 14.5085L37.5027 14.7358C37.4174 15.0104 37.2742 15.2519 37.073 15.4602C36.8717 15.6662 36.6232 15.8272 36.3272 15.9432C36.0313 16.0568 35.6987 16.1136 35.3294 16.1136ZM38.8627 16V10.5455H39.6724V11.3693H39.7292C39.8287 11.0994 40.0086 10.8804 40.269 10.7124C40.5294 10.5443 40.823 10.4602 41.1497 10.4602C41.2112 10.4602 41.2882 10.4614 41.3805 10.4638C41.4728 10.4661 41.5427 10.4697 41.59 10.4744V11.3267C41.5616 11.3196 41.4965 11.3089 41.3947 11.2947C41.2953 11.2782 41.1899 11.2699 41.0787 11.2699C40.8135 11.2699 40.5768 11.3255 40.3684 11.4368C40.1625 11.5457 39.9991 11.6972 39.8784 11.8913C39.76 12.0831 39.7008 12.3021 39.7008 12.5483V16H38.8627ZM45.2974 10.5455V11.2557H42.4707V10.5455H45.2974ZM43.2946 9.23864H44.1326V14.4375C44.1326 14.6742 44.167 14.8518 44.2356 14.9702C44.3066 15.0862 44.3966 15.1643 44.5055 15.2045C44.6168 15.2424 44.734 15.2614 44.8571 15.2614C44.9494 15.2614 45.0252 15.2566 45.0843 15.2472C45.1435 15.2353 45.1909 15.2259 45.2264 15.2188L45.3968 15.9716C45.34 15.9929 45.2607 16.0142 45.1589 16.0355C45.0571 16.0592 44.9281 16.071 44.7718 16.071C44.5351 16.071 44.3031 16.0201 44.0758 15.9183C43.8509 15.8165 43.6639 15.6615 43.5147 15.4531C43.368 15.2448 43.2946 14.982 43.2946 14.6648V9.23864ZM46.5581 16V10.5455H47.3961V16H46.5581ZM46.9842 9.63636C46.8208 9.63636 46.68 9.58073 46.5616 9.46946C46.4456 9.35819 46.3876 9.22443 46.3876 9.06818C46.3876 8.91193 46.4456 8.77817 46.5616 8.6669C46.68 8.55563 46.8208 8.5 46.9842 8.5C47.1475 8.5 47.2872 8.55563 47.4032 8.6669C47.5216 8.77817 47.5808 8.91193 47.5808 9.06818C47.5808 9.22443 47.5216 9.35819 47.4032 9.46946C47.2872 9.58073 47.1475 9.63636 46.9842 9.63636ZM51.3601 10.5455V11.2557H48.4197V10.5455H51.3601ZM49.3004 16V9.79261C49.3004 9.48011 49.3738 9.2197 49.5206 9.01136C49.6674 8.80303 49.858 8.64678 50.0923 8.54261C50.3267 8.43845 50.5741 8.38636 50.8345 8.38636C51.0405 8.38636 51.2086 8.40294 51.3388 8.43608C51.469 8.46922 51.5661 8.5 51.63 8.52841L51.3885 9.25284C51.3459 9.23864 51.2867 9.22088 51.2109 9.19957C51.1375 9.17827 51.0405 9.16761 50.9197 9.16761C50.6428 9.16761 50.4427 9.23745 50.3196 9.37713C50.1989 9.51681 50.1385 9.72159 50.1385 9.99148V16H49.3004ZM52.5346 16V10.5455H53.3727V16H52.5346ZM52.9608 9.63636C52.7974 9.63636 52.6565 9.58073 52.5382 9.46946C52.4222 9.35819 52.3642 9.22443 52.3642 9.06818C52.3642 8.91193 52.4222 8.77817 52.5382 8.6669C52.6565 8.55563 52.7974 8.5 52.9608 8.5C53.1241 8.5 53.2638 8.55563 53.3798 8.6669C53.4982 8.77817 53.5574 8.91193 53.5574 9.06818C53.5574 9.22443 53.4982 9.35819 53.3798 9.46946C53.2638 9.58073 53.1241 9.63636 52.9608 9.63636ZM57.1946 16.1136C56.669 16.1136 56.2157 15.9976 55.8345 15.7656C55.4557 15.5312 55.1634 15.2045 54.9574 14.7855C54.7538 14.3641 54.652 13.8741 54.652 13.3153C54.652 12.7566 54.7538 12.2642 54.9574 11.8381C55.1634 11.4096 55.4498 11.0758 55.8168 10.8366C56.1861 10.5952 56.617 10.4744 57.1094 10.4744C57.3935 10.4744 57.674 10.5218 57.951 10.6165C58.228 10.7112 58.4801 10.8651 58.7074 11.0781C58.9347 11.2888 59.1158 11.5682 59.2507 11.9162C59.3857 12.2642 59.4531 12.6927 59.4531 13.2017V13.5568H55.2486V12.8324H58.6009C58.6009 12.5246 58.5393 12.25 58.4162 12.0085C58.2955 11.767 58.1226 11.5765 57.8977 11.4368C57.6752 11.2971 57.4124 11.2273 57.1094 11.2273C56.7756 11.2273 56.4867 11.3101 56.2429 11.4759C56.0014 11.6392 55.8156 11.8523 55.6854 12.1151C55.5552 12.3778 55.4901 12.6596 55.4901 12.9602V13.4432C55.4901 13.8551 55.5611 14.2043 55.7031 14.4908C55.8475 14.7749 56.0476 14.9915 56.3033 15.1406C56.5589 15.2874 56.8561 15.3608 57.1946 15.3608C57.4148 15.3608 57.6136 15.33 57.7912 15.2685C57.9711 15.2045 58.1262 15.1098 58.2564 14.9844C58.3866 14.8565 58.4872 14.6979 58.5582 14.5085L59.3679 14.7358C59.2827 15.0104 59.1394 15.2519 58.9382 15.4602C58.737 15.6662 58.4884 15.8272 58.1925 15.9432C57.8965 16.0568 57.5639 16.1136 57.1946 16.1136ZM62.7876 16.1136C62.3331 16.1136 61.9318 15.9988 61.5838 15.7692C61.2358 15.5372 60.9635 15.2105 60.767 14.7891C60.5705 14.3653 60.4723 13.8646 60.4723 13.2869C60.4723 12.714 60.5705 12.2169 60.767 11.7955C60.9635 11.3741 61.237 11.0485 61.5874 10.8189C61.9377 10.5893 62.3426 10.4744 62.8018 10.4744C63.157 10.4744 63.4375 10.5336 63.6435 10.652C63.8518 10.768 64.0104 10.9006 64.1193 11.0497C64.2306 11.1965 64.317 11.3172 64.3786 11.4119H64.4496V8.72727H65.2876V16H64.478V15.1619H64.3786C64.317 15.2614 64.2294 15.3868 64.1158 15.5384C64.0021 15.6875 63.84 15.8213 63.6293 15.9396C63.4186 16.0556 63.138 16.1136 62.7876 16.1136ZM62.9013 15.3608C63.2375 15.3608 63.5215 15.2732 63.7536 15.098C63.9856 14.9205 64.1619 14.6754 64.2827 14.3629C64.4034 14.0481 64.4638 13.6847 64.4638 13.2727C64.4638 12.8655 64.4046 12.5092 64.2862 12.2038C64.1679 11.8961 63.9927 11.657 63.7607 11.4865C63.5286 11.3137 63.2422 11.2273 62.9013 11.2273C62.5462 11.2273 62.2502 11.3184 62.0135 11.5007C61.7791 11.6806 61.6027 11.9257 61.4844 12.2358C61.3684 12.5436 61.3104 12.8892 61.3104 13.2727C61.3104 13.661 61.3696 14.0137 61.4879 14.331C61.6087 14.6458 61.7862 14.8968 62.0206 15.0838C62.2573 15.2685 62.5509 15.3608 62.9013 15.3608ZM74.8366 11C74.7585 10.7609 74.6555 10.5466 74.5277 10.3572C74.4022 10.1655 74.2519 10.0021 74.0767 9.86719C73.9039 9.73224 73.7074 9.62926 73.4872 9.55824C73.267 9.48722 73.0256 9.4517 72.7628 9.4517C72.3319 9.4517 71.9401 9.56297 71.5874 9.78551C71.2346 10.008 70.9541 10.3359 70.7457 10.7692C70.5374 11.2024 70.4332 11.7339 70.4332 12.3636C70.4332 12.9934 70.5386 13.5249 70.7493 13.9581C70.96 14.3913 71.2453 14.7192 71.6051 14.9418C71.965 15.1643 72.3698 15.2756 72.8196 15.2756C73.2363 15.2756 73.6032 15.1868 73.9205 15.0092C74.2401 14.8293 74.4886 14.576 74.6662 14.2493C74.8461 13.9202 74.9361 13.5331 74.9361 13.0881L75.206 13.1449H73.0185V12.3636H75.7884V13.1449C75.7884 13.7438 75.6605 14.2647 75.4048 14.7074C75.1515 15.1501 74.8011 15.4934 74.3537 15.7372C73.9086 15.9787 73.3973 16.0994 72.8196 16.0994C72.1757 16.0994 71.6098 15.9479 71.1222 15.6449C70.6368 15.3419 70.258 14.911 69.9858 14.3523C69.7159 13.7936 69.581 13.1307 69.581 12.3636C69.581 11.7884 69.6579 11.2711 69.8118 10.8118C69.968 10.3501 70.1882 9.95715 70.4723 9.63281C70.7564 9.30848 71.0926 9.0599 71.4808 8.88707C71.8691 8.71425 72.2964 8.62784 72.7628 8.62784C73.1463 8.62784 73.5038 8.68584 73.8352 8.80185C74.169 8.91548 74.4661 9.07765 74.7266 9.28835C74.9893 9.49669 75.2083 9.74645 75.3835 10.0376C75.5587 10.3265 75.6795 10.6473 75.7457 11H74.8366ZM79.399 16.1136C78.9065 16.1136 78.4745 15.9964 78.1028 15.7621C77.7335 15.5277 77.4447 15.1998 77.2363 14.7784C77.0304 14.357 76.9274 13.8646 76.9274 13.3011C76.9274 12.733 77.0304 12.237 77.2363 11.8132C77.4447 11.3894 77.7335 11.0604 78.1028 10.826C78.4745 10.5916 78.9065 10.4744 79.399 10.4744C79.8914 10.4744 80.3223 10.5916 80.6916 10.826C81.0633 11.0604 81.3521 11.3894 81.5581 11.8132C81.7664 12.237 81.8706 12.733 81.8706 13.3011C81.8706 13.8646 81.7664 14.357 81.5581 14.7784C81.3521 15.1998 81.0633 15.5277 80.6916 15.7621C80.3223 15.9964 79.8914 16.1136 79.399 16.1136ZM79.399 15.3608C79.773 15.3608 80.0808 15.2649 80.3223 15.0732C80.5637 14.8814 80.7425 14.6293 80.8585 14.3168C80.9745 14.0043 81.0325 13.6657 81.0325 13.3011C81.0325 12.9366 80.9745 12.5968 80.8585 12.282C80.7425 11.9671 80.5637 11.7126 80.3223 11.5185C80.0808 11.3243 79.773 11.2273 79.399 11.2273C79.0249 11.2273 78.7172 11.3243 78.4757 11.5185C78.2342 11.7126 78.0555 11.9671 77.9395 12.282C77.8234 12.5968 77.7654 12.9366 77.7654 13.3011C77.7654 13.6657 77.8234 14.0043 77.9395 14.3168C78.0555 14.6293 78.2342 14.8814 78.4757 15.0732C78.7172 15.2649 79.0249 15.3608 79.399 15.3608ZM85.3658 16.1136C84.8733 16.1136 84.4413 15.9964 84.0696 15.7621C83.7003 15.5277 83.4115 15.1998 83.2031 14.7784C82.9972 14.357 82.8942 13.8646 82.8942 13.3011C82.8942 12.733 82.9972 12.237 83.2031 11.8132C83.4115 11.3894 83.7003 11.0604 84.0696 10.826C84.4413 10.5916 84.8733 10.4744 85.3658 10.4744C85.8582 10.4744 86.2891 10.5916 86.6584 10.826C87.0301 11.0604 87.3189 11.3894 87.5249 11.8132C87.7332 12.237 87.8374 12.733 87.8374 13.3011C87.8374 13.8646 87.7332 14.357 87.5249 14.7784C87.3189 15.1998 87.0301 15.5277 86.6584 15.7621C86.2891 15.9964 85.8582 16.1136 85.3658 16.1136ZM85.3658 15.3608C85.7398 15.3608 86.0476 15.2649 86.2891 15.0732C86.5305 14.8814 86.7093 14.6293 86.8253 14.3168C86.9413 14.0043 86.9993 13.6657 86.9993 13.3011C86.9993 12.9366 86.9413 12.5968 86.8253 12.282C86.7093 11.9671 86.5305 11.7126 86.2891 11.5185C86.0476 11.3243 85.7398 11.2273 85.3658 11.2273C84.9917 11.2273 84.6839 11.3243 84.4425 11.5185C84.201 11.7126 84.0223 11.9671 83.9062 12.282C83.7902 12.5968 83.7322 12.9366 83.7322 13.3011C83.7322 13.6657 83.7902 14.0043 83.9062 14.3168C84.0223 14.6293 84.201 14.8814 84.4425 15.0732C84.6839 15.2649 84.9917 15.3608 85.3658 15.3608ZM91.3184 18.1591C90.9135 18.1591 90.5655 18.107 90.2743 18.0028C89.9831 17.901 89.7405 17.7661 89.5463 17.598C89.3546 17.4323 89.2019 17.2547 89.0882 17.0653L89.7559 16.5966C89.8316 16.696 89.9275 16.8097 90.0435 16.9375C90.1595 17.0677 90.3181 17.1802 90.5194 17.2749C90.723 17.3719 90.9893 17.4205 91.3184 17.4205C91.7587 17.4205 92.1221 17.3139 92.4086 17.1009C92.695 16.8878 92.8382 16.554 92.8382 16.0994V14.9915H92.7672C92.7057 15.0909 92.6181 15.214 92.5044 15.3608C92.3932 15.5052 92.2322 15.6342 92.0215 15.7479C91.8132 15.8591 91.5314 15.9148 91.1763 15.9148C90.736 15.9148 90.3406 15.8106 89.9902 15.6023C89.6422 15.3939 89.3664 15.0909 89.1628 14.6932C88.9616 14.2955 88.861 13.8125 88.861 13.2443C88.861 12.6856 88.9592 12.1991 89.1557 11.7848C89.3522 11.3681 89.6257 11.0462 89.976 10.8189C90.3264 10.5893 90.7312 10.4744 91.1905 10.4744C91.5456 10.4744 91.8274 10.5336 92.0357 10.652C92.2464 10.768 92.4074 10.9006 92.5186 11.0497C92.6323 11.1965 92.7199 11.3172 92.7814 11.4119H92.8667V10.5455H93.6763V16.1562C93.6763 16.625 93.5698 17.0062 93.3567 17.2997C93.146 17.5956 92.8619 17.8123 92.5044 17.9496C92.1493 18.0893 91.754 18.1591 91.3184 18.1591ZM91.29 15.1619C91.6261 15.1619 91.9102 15.085 92.1422 14.9311C92.3742 14.7772 92.5506 14.5559 92.6713 14.267C92.7921 13.9782 92.8525 13.6326 92.8525 13.2301C92.8525 12.8371 92.7933 12.4903 92.6749 12.1896C92.5565 11.889 92.3813 11.6534 92.1493 11.483C91.9173 11.3125 91.6309 11.2273 91.29 11.2273C90.9348 11.2273 90.6389 11.3172 90.4022 11.4972C90.1678 11.6771 89.9914 11.9186 89.873 12.2216C89.757 12.5246 89.699 12.8608 89.699 13.2301C89.699 13.6089 89.7582 13.9439 89.8766 14.2351C89.9973 14.5239 90.1749 14.7512 90.4093 14.9169C90.646 15.0803 90.9396 15.1619 91.29 15.1619ZM96.0485 8.72727V16H95.2104V8.72727H96.0485ZM99.8704 16.1136C99.3448 16.1136 98.8915 15.9976 98.5103 15.7656C98.1315 15.5312 97.8391 15.2045 97.6332 14.7855C97.4296 14.3641 97.3278 13.8741 97.3278 13.3153C97.3278 12.7566 97.4296 12.2642 97.6332 11.8381C97.8391 11.4096 98.1256 11.0758 98.4925 10.8366C98.8619 10.5952 99.2927 10.4744 99.7852 10.4744C100.069 10.4744 100.35 10.5218 100.627 10.6165C100.904 10.7112 101.156 10.8651 101.383 11.0781C101.61 11.2888 101.792 11.5682 101.926 11.9162C102.061 12.2642 102.129 12.6927 102.129 13.2017V13.5568H97.9244V12.8324H101.277C101.277 12.5246 101.215 12.25 101.092 12.0085C100.971 11.767 100.798 11.5765 100.574 11.4368C100.351 11.2971 100.088 11.2273 99.7852 11.2273C99.4513 11.2273 99.1625 11.3101 98.9187 11.4759C98.6772 11.6392 98.4914 11.8523 98.3612 12.1151C98.2309 12.3778 98.1658 12.6596 98.1658 12.9602V13.4432C98.1658 13.8551 98.2369 14.2043 98.3789 14.4908C98.5233 14.7749 98.7234 14.9915 98.979 15.1406C99.2347 15.2874 99.5318 15.3608 99.8704 15.3608C100.091 15.3608 100.289 15.33 100.467 15.2685C100.647 15.2045 100.802 15.1098 100.932 14.9844C101.062 14.8565 101.163 14.6979 101.234 14.5085L102.044 14.7358C101.958 15.0104 101.815 15.2519 101.614 15.4602C101.413 15.6662 101.164 15.8272 100.868 15.9432C100.572 16.0568 100.24 16.1136 99.8704 16.1136ZM106.33 16V8.72727H108.787C109.358 8.72727 109.824 8.83026 110.186 9.03622C110.551 9.23982 110.821 9.51562 110.996 9.86364C111.171 10.2116 111.259 10.5999 111.259 11.0284C111.259 11.4569 111.171 11.8464 110.996 12.1967C110.823 12.5471 110.556 12.8265 110.194 13.0348C109.831 13.2408 109.367 13.3438 108.801 13.3438H107.04V12.5625H108.773C109.164 12.5625 109.477 12.495 109.714 12.3601C109.951 12.2251 110.123 12.0429 110.229 11.8132C110.338 11.5812 110.392 11.3196 110.392 11.0284C110.392 10.7372 110.338 10.4768 110.229 10.2472C110.123 10.0175 109.95 9.83759 109.711 9.70739C109.471 9.57481 109.154 9.50852 108.759 9.50852H107.211V16H106.33ZM114.169 16.1278C113.823 16.1278 113.51 16.0627 113.228 15.9325C112.946 15.8 112.723 15.6094 112.557 15.3608C112.391 15.1098 112.308 14.8068 112.308 14.4517C112.308 14.1392 112.37 13.8859 112.493 13.6918C112.616 13.4953 112.781 13.3414 112.987 13.2301C113.192 13.1188 113.42 13.036 113.668 12.9815C113.919 12.9247 114.171 12.8797 114.425 12.8466C114.756 12.804 115.025 12.772 115.231 12.7507C115.439 12.727 115.591 12.688 115.685 12.6335C115.782 12.5791 115.831 12.4844 115.831 12.3494V12.321C115.831 11.9706 115.735 11.6984 115.543 11.5043C115.354 11.3101 115.066 11.2131 114.68 11.2131C114.28 11.2131 113.967 11.3007 113.739 11.4759C113.512 11.651 113.352 11.8381 113.26 12.0369L112.464 11.7528C112.607 11.4214 112.796 11.1634 113.033 10.9787C113.272 10.7917 113.532 10.6615 113.814 10.5881C114.098 10.5123 114.377 10.4744 114.652 10.4744C114.827 10.4744 115.028 10.4957 115.256 10.5384C115.485 10.5786 115.707 10.6626 115.92 10.7905C116.135 10.9183 116.314 11.1113 116.456 11.3693C116.598 11.6274 116.669 11.973 116.669 12.4062V16H115.831V15.2614H115.788C115.732 15.3797 115.637 15.5064 115.504 15.6413C115.372 15.7763 115.195 15.8911 114.975 15.9858C114.755 16.0805 114.486 16.1278 114.169 16.1278ZM114.297 15.375C114.628 15.375 114.908 15.3099 115.135 15.1797C115.365 15.0495 115.537 14.8814 115.653 14.6754C115.772 14.4695 115.831 14.2528 115.831 14.0256V13.2585C115.795 13.3011 115.717 13.3402 115.597 13.3757C115.478 13.4089 115.341 13.4384 115.185 13.4645C115.031 13.4882 114.88 13.5095 114.734 13.5284C114.589 13.545 114.472 13.5592 114.382 13.571C114.164 13.5994 113.961 13.6456 113.771 13.7095C113.584 13.7711 113.433 13.8646 113.317 13.9901C113.203 14.1132 113.146 14.2812 113.146 14.4943C113.146 14.7855 113.254 15.0057 113.469 15.1548C113.687 15.3016 113.963 15.375 114.297 15.375ZM118.199 16V10.5455H119.008V11.3693H119.065C119.165 11.0994 119.345 10.8804 119.605 10.7124C119.865 10.5443 120.159 10.4602 120.486 10.4602C120.547 10.4602 120.624 10.4614 120.716 10.4638C120.809 10.4661 120.879 10.4697 120.926 10.4744V11.3267C120.898 11.3196 120.832 11.3089 120.731 11.2947C120.631 11.2782 120.526 11.2699 120.415 11.2699C120.149 11.2699 119.913 11.3255 119.704 11.4368C119.498 11.5457 119.335 11.6972 119.214 11.8913C119.096 12.0831 119.037 12.3021 119.037 12.5483V16H118.199ZM124.633 10.5455V11.2557H121.807V10.5455H124.633ZM122.631 9.23864H123.469V14.4375C123.469 14.6742 123.503 14.8518 123.572 14.9702C123.643 15.0862 123.733 15.1643 123.841 15.2045C123.953 15.2424 124.07 15.2614 124.193 15.2614C124.285 15.2614 124.361 15.2566 124.42 15.2472C124.479 15.2353 124.527 15.2259 124.562 15.2188L124.733 15.9716C124.676 15.9929 124.597 16.0142 124.495 16.0355C124.393 16.0592 124.264 16.071 124.108 16.071C123.871 16.071 123.639 16.0201 123.412 15.9183C123.187 15.8165 123 15.6615 122.851 15.4531C122.704 15.2448 122.631 14.982 122.631 14.6648V9.23864ZM126.732 12.7188V16H125.894V10.5455H126.704V11.3977H126.775C126.903 11.1207 127.097 10.8982 127.357 10.7301C127.617 10.5597 127.954 10.4744 128.366 10.4744C128.735 10.4744 129.058 10.5502 129.335 10.7017C129.612 10.8509 129.827 11.0781 129.981 11.3835C130.135 11.6866 130.212 12.0701 130.212 12.5341V16H129.374V12.5909C129.374 12.1624 129.263 11.8286 129.04 11.5895C128.818 11.348 128.512 11.2273 128.124 11.2273C127.857 11.2273 127.617 11.2853 127.407 11.4013C127.198 11.5173 127.034 11.6866 126.913 11.9091C126.792 12.1316 126.732 12.4015 126.732 12.7188ZM134.031 16.1136C133.505 16.1136 133.052 15.9976 132.67 15.7656C132.292 15.5312 131.999 15.2045 131.793 14.7855C131.59 14.3641 131.488 13.8741 131.488 13.3153C131.488 12.7566 131.59 12.2642 131.793 11.8381C131.999 11.4096 132.286 11.0758 132.653 10.8366C133.022 10.5952 133.453 10.4744 133.945 10.4744C134.229 10.4744 134.51 10.5218 134.787 10.6165C135.064 10.7112 135.316 10.8651 135.543 11.0781C135.771 11.2888 135.952 11.5682 136.087 11.9162C136.222 12.2642 136.289 12.6927 136.289 13.2017V13.5568H132.085V12.8324H135.437C135.437 12.5246 135.375 12.25 135.252 12.0085C135.131 11.767 134.959 11.5765 134.734 11.4368C134.511 11.2971 134.248 11.2273 133.945 11.2273C133.612 11.2273 133.323 11.3101 133.079 11.4759C132.837 11.6392 132.652 11.8523 132.521 12.1151C132.391 12.3778 132.326 12.6596 132.326 12.9602V13.4432C132.326 13.8551 132.397 14.2043 132.539 14.4908C132.683 14.7749 132.884 14.9915 133.139 15.1406C133.395 15.2874 133.692 15.3608 134.031 15.3608C134.251 15.3608 134.45 15.33 134.627 15.2685C134.807 15.2045 134.962 15.1098 135.092 14.9844C135.223 14.8565 135.323 14.6979 135.394 14.5085L136.204 14.7358C136.119 15.0104 135.975 15.2519 135.774 15.4602C135.573 15.6662 135.324 15.8272 135.028 15.9432C134.732 16.0568 134.4 16.1136 134.031 16.1136ZM137.564 16V10.5455H138.374V11.3693H138.43C138.53 11.0994 138.71 10.8804 138.97 10.7124C139.231 10.5443 139.524 10.4602 139.851 10.4602C139.912 10.4602 139.989 10.4614 140.082 10.4638C140.174 10.4661 140.244 10.4697 140.291 10.4744V11.3267C140.263 11.3196 140.198 11.3089 140.096 11.2947C139.996 11.2782 139.891 11.2699 139.78 11.2699C139.515 11.2699 139.278 11.3255 139.07 11.4368C138.864 11.5457 138.7 11.6972 138.58 11.8913C138.461 12.0831 138.402 12.3021 138.402 12.5483V16H137.564Z" fill="#474747"></path><g clip-path="url(#clip0_447_2)"><path d="M16.5506 6.65265C16.3487 6.44605 16.1076 6.28189 15.8414 6.16981C15.5752 6.05774 15.2892 6 15.0004 6C14.7115 6 14.4256 6.05774 14.1594 6.16981C13.8931 6.28189 13.652 6.44605 13.4501 6.65265L12.9836 7.13115L12.3161 7.1229C12.0272 7.11948 11.7405 7.17386 11.4729 7.28286C11.2053 7.39186 10.9621 7.55327 10.7578 7.75759C10.5535 7.96191 10.3921 8.20503 10.2831 8.47264C10.1741 8.74025 10.1197 9.02696 10.1231 9.3159L10.1306 9.9834L9.65362 10.4499C9.44703 10.6518 9.28287 10.8929 9.17079 11.1591C9.05871 11.4254 9.00098 11.7113 9.00098 12.0001C9.00098 12.289 9.05871 12.5749 9.17079 12.8412C9.28287 13.1074 9.44703 13.3485 9.65362 13.5504L10.1314 14.0169L10.1231 14.6844C10.1197 14.9733 10.1741 15.26 10.2831 15.5277C10.3921 15.7953 10.5535 16.0384 10.7578 16.2427C10.9621 16.447 11.2053 16.6084 11.4729 16.7174C11.7405 16.8264 12.0272 16.8808 12.3161 16.8774L12.9836 16.8699L13.4501 17.3469C13.652 17.5535 13.8931 17.7177 14.1594 17.8297C14.4256 17.9418 14.7115 17.9995 15.0004 17.9995C15.2892 17.9995 15.5752 17.9418 15.8414 17.8297C16.1076 17.7177 16.3487 17.5535 16.5506 17.3469L17.0171 16.8691L17.6846 16.8774C17.9736 16.8808 18.2603 16.8264 18.5279 16.7174C18.7955 16.6084 19.0386 16.447 19.2429 16.2427C19.4473 16.0384 19.6087 15.7953 19.7177 15.5277C19.8267 15.26 19.881 14.9733 19.8776 14.6844L19.8701 14.0169L20.3471 13.5504C20.5537 13.3485 20.7179 13.1074 20.83 12.8412C20.942 12.5749 20.9998 12.289 20.9998 12.0001C20.9998 11.7113 20.942 11.4254 20.83 11.1591C20.7179 10.8929 20.5537 10.6518 20.3471 10.4499L19.8694 9.9834L19.8776 9.3159C19.881 9.02696 19.8267 8.74025 19.7177 8.47264C19.6087 8.20503 19.4473 7.96191 19.2429 7.75759C19.0386 7.55327 18.7955 7.39186 18.5279 7.28286C18.2603 7.17386 17.9736 7.11948 17.6846 7.1229L17.0171 7.1304L16.5506 6.65265ZM16.7659 11.1406L14.5159 13.3906C14.481 13.4256 14.4397 13.4533 14.3941 13.4722C14.3485 13.4911 14.2997 13.5008 14.2504 13.5008C14.201 13.5008 14.1522 13.4911 14.1066 13.4722C14.0611 13.4533 14.0197 13.4256 13.9849 13.3906L12.8599 12.2656C12.825 12.2308 12.7973 12.1894 12.7785 12.1438C12.7596 12.0983 12.7499 12.0495 12.7499 12.0001C12.7499 11.9508 12.7596 11.902 12.7785 11.8565C12.7973 11.8109 12.825 11.7695 12.8599 11.7346C12.8947 11.6998 12.9361 11.6721 12.9817 11.6533C13.0272 11.6344 13.0761 11.6247 13.1254 11.6247C13.1747 11.6247 13.2235 11.6344 13.2691 11.6533C13.3146 11.6721 13.356 11.6998 13.3909 11.7346L14.2504 12.5949L16.2349 10.6096C16.3053 10.5392 16.4008 10.4997 16.5004 10.4997C16.6 10.4997 16.6955 10.5392 16.7659 10.6096C16.8363 10.6801 16.8758 10.7756 16.8758 10.8751C16.8758 10.9747 16.8363 11.0702 16.7659 11.1406Z" fill="#4285F4"></path></g><defs><clipPath id="clip0_447_2"><rect width="12" height="12" fill="white" transform="translate(9 6)"></rect></clipPath></defs></svg>